<svg xmlns="http://www.w3.org/2000/svg" viewBox="0 0 320 80" fill="none">
  <!-- Brand Mark (J*) -->
  <g transform="translate(8, 8)">
    <rect width="64" height="64" rx="14" fill="#111827" stroke="#1f2937" stroke-width="1.5"/>
    <path d="M35 15H26V36C26 41.5 22 43.5 17 42.5V48.5C25.5 49.8 35 45.8 35 36V15Z" fill="#ffffff"/>
    <g transform="translate(44, 20)" stroke="#ef4444" stroke-width="3.5" stroke-linecap="round">
      <line x1="0" y1="-8" x2="0" y2="8"/>
      <line x1="-6.93" y1="-4" x2="6.93" y2="4"/>
      <line x1="-6.93" y1="4" x2="6.93" y2="-4"/>
    </g>
  </g>

  <!-- Typography -->
  <!-- Red J Badge / Accent -->
  <g transform="translate(86, 24)">
    <rect x="0" y="2" width="22" height="26" rx="4" fill="#ef4444"/>
    <path d="M15 6H10V18C10 20 8.5 21 6.5 20.5V23.5C10.5 24 15 22.5 15 18V6Z" fill="#ffffff"/>
  </g>
  <!-- Text: astrisk -->
  <text x="113" y="45" font-family="Inter, -apple-system, BlinkMacSystemFont, 'Segoe UI', Roboto, sans-serif" font-size="24" font-weight="800" fill="#f8fafc" letter-spacing="-0.5">astrisk</text>
  <!-- Subtitle: Software -->
  <text x="114" y="62" font-family="Inter, -apple-system, BlinkMacSystemFont, 'Segoe UI', Roboto, sans-serif" font-size="12" font-weight="700" fill="#ef4444" letter-spacing="3.5">SOFTWARE</text>
</svg>
